%TF.GenerationSoftware,KiCad,Pcbnew,(5.1.8)-1*%
%TF.CreationDate,2021-11-24T15:46:08-08:00*%
%TF.ProjectId,ISP_SMT_Pogo_10p,4953505f-534d-4545-9f50-6f676f5f3130,rev?*%
%TF.SameCoordinates,Original*%
%TF.FileFunction,Copper,L1,Top*%
%TF.FilePolarity,Positive*%
%FSLAX46Y46*%
G04 Gerber Fmt 4.6, Leading zero omitted, Abs format (unit mm)*
G04 Created by KiCad (PCBNEW (5.1.8)-1) date 2021-11-24 15:46:08*
%MOMM*%
%LPD*%
G01*
G04 APERTURE LIST*
%TA.AperFunction,ComponentPad*%
%ADD10C,2.032000*%
%TD*%
%TA.AperFunction,ComponentPad*%
%ADD11C,1.700000*%
%TD*%
%TA.AperFunction,ComponentPad*%
%ADD12C,5.334000*%
%TD*%
%TA.AperFunction,Conductor*%
%ADD13C,0.250000*%
%TD*%
%TA.AperFunction,Conductor*%
%ADD14C,0.254000*%
%TD*%
%TA.AperFunction,Conductor*%
%ADD15C,0.100000*%
%TD*%
G04 APERTURE END LIST*
D10*
%TO.P,J1,6*%
%TO.N,/GND*%
X140970000Y-83185000D03*
%TO.P,J1,4*%
%TO.N,/MOSI*%
X140970000Y-80645000D03*
%TO.P,J1,5*%
%TO.N,/RST*%
X133350000Y-83185000D03*
%TO.P,J1,3*%
%TO.N,/SCK*%
X133350000Y-80645000D03*
%TO.P,J1,1*%
%TO.N,/MISO*%
X133350000Y-78105000D03*
%TO.P,J1,2*%
%TO.N,/VCC*%
X140970000Y-78105000D03*
%TD*%
D11*
%TO.P,J2,10*%
%TO.N,/GND*%
X138430000Y-86995000D03*
%TO.P,J2,8*%
X138430000Y-84455000D03*
%TO.P,J2,6*%
X138430000Y-81915000D03*
%TO.P,J2,4*%
X138430000Y-79375000D03*
%TO.P,J2,2*%
%TO.N,/VCC*%
X138430000Y-76835000D03*
%TO.P,J2,9*%
%TO.N,/MISO*%
X135890000Y-86995000D03*
%TO.P,J2,7*%
%TO.N,/SCK*%
X135890000Y-84455000D03*
%TO.P,J2,5*%
%TO.N,/RST*%
X135890000Y-81915000D03*
%TO.P,J2,3*%
%TO.N,Net-(J2-Pad3)*%
X135890000Y-79375000D03*
%TO.P,J2,1*%
%TO.N,/MOSI*%
%TA.AperFunction,ComponentPad*%
G36*
G01*
X135040000Y-77435000D02*
X135040000Y-76235000D01*
G75*
G02*
X135290000Y-75985000I250000J0D01*
G01*
X136490000Y-75985000D01*
G75*
G02*
X136740000Y-76235000I0J-250000D01*
G01*
X136740000Y-77435000D01*
G75*
G02*
X136490000Y-77685000I-250000J0D01*
G01*
X135290000Y-77685000D01*
G75*
G02*
X135040000Y-77435000I0J250000D01*
G01*
G37*
%TD.AperFunction*%
%TD*%
D12*
%TO.P,H2,1*%
%TO.N,/GND*%
X136779000Y-68834000D03*
%TD*%
%TO.P,H1,1*%
%TO.N,/GND*%
X136779000Y-94996000D03*
%TD*%
D13*
%TO.N,/MOSI*%
X142494000Y-79121000D02*
X140970000Y-80645000D01*
X142494000Y-77216000D02*
X142494000Y-79121000D01*
X140462000Y-75184000D02*
X142494000Y-77216000D01*
X137541000Y-75184000D02*
X140462000Y-75184000D01*
X135890000Y-76835000D02*
X137541000Y-75184000D01*
%TO.N,/RST*%
X134620000Y-81915000D02*
X135890000Y-81915000D01*
X133350000Y-83185000D02*
X134620000Y-81915000D01*
%TO.N,/SCK*%
X135001000Y-85344000D02*
X135890000Y-84455000D01*
X133350000Y-85344000D02*
X135001000Y-85344000D01*
X131826000Y-83820000D02*
X133350000Y-85344000D01*
X131826000Y-82169000D02*
X131826000Y-83820000D01*
X133350000Y-80645000D02*
X131826000Y-82169000D01*
%TO.N,/MISO*%
X133477000Y-86995000D02*
X135890000Y-86995000D01*
X131318000Y-84836000D02*
X133477000Y-86995000D01*
X131318000Y-80137000D02*
X131318000Y-84836000D01*
X133350000Y-78105000D02*
X131318000Y-80137000D01*
%TO.N,/VCC*%
X139700000Y-76835000D02*
X140970000Y-78105000D01*
X138430000Y-76835000D02*
X139700000Y-76835000D01*
%TD*%
D14*
%TO.N,/GND*%
X134938346Y-66073389D02*
X134932916Y-66077018D01*
X134636698Y-66512093D01*
X136779000Y-68654395D01*
X138921302Y-66512093D01*
X138625084Y-66077018D01*
X138365614Y-65938000D01*
X145263000Y-65938000D01*
X145263001Y-97892000D01*
X138365758Y-97892000D01*
X138619654Y-97756611D01*
X138625084Y-97752982D01*
X138921302Y-97317907D01*
X136779000Y-95175605D01*
X134636698Y-97317907D01*
X134932916Y-97752982D01*
X135192386Y-97892000D01*
X128295000Y-97892000D01*
X128295000Y-94992734D01*
X133461024Y-94992734D01*
X133524140Y-95640101D01*
X133712339Y-96262717D01*
X134018389Y-96836654D01*
X134022018Y-96842084D01*
X134457093Y-97138302D01*
X136599395Y-94996000D01*
X136958605Y-94996000D01*
X139100907Y-97138302D01*
X139535982Y-96842084D01*
X139843160Y-96268752D01*
X140032585Y-95646509D01*
X140096976Y-94999266D01*
X140033860Y-94351899D01*
X139845661Y-93729283D01*
X139539611Y-93155346D01*
X139535982Y-93149916D01*
X139100907Y-92853698D01*
X136958605Y-94996000D01*
X136599395Y-94996000D01*
X134457093Y-92853698D01*
X134022018Y-93149916D01*
X133714840Y-93723248D01*
X133525415Y-94345491D01*
X133461024Y-94992734D01*
X128295000Y-94992734D01*
X128295000Y-92674093D01*
X134636698Y-92674093D01*
X136779000Y-94816395D01*
X138921302Y-92674093D01*
X138625084Y-92239018D01*
X138051752Y-91931840D01*
X137429509Y-91742415D01*
X136782266Y-91678024D01*
X136134899Y-91741140D01*
X135512283Y-91929339D01*
X134938346Y-92235389D01*
X134932916Y-92239018D01*
X134636698Y-92674093D01*
X128295000Y-92674093D01*
X128295000Y-80137000D01*
X130554324Y-80137000D01*
X130558000Y-80174323D01*
X130558001Y-84798668D01*
X130554324Y-84836000D01*
X130568998Y-84984985D01*
X130612454Y-85128246D01*
X130683026Y-85260276D01*
X130751737Y-85344000D01*
X130778000Y-85376001D01*
X130806998Y-85399799D01*
X132913201Y-87506003D01*
X132936999Y-87535001D01*
X132965997Y-87558799D01*
X133052723Y-87629974D01*
X133180759Y-87698411D01*
X133184753Y-87700546D01*
X133328014Y-87744003D01*
X133439667Y-87755000D01*
X133439676Y-87755000D01*
X133476999Y-87758676D01*
X133514322Y-87755000D01*
X134611822Y-87755000D01*
X134736525Y-87941632D01*
X134943368Y-88148475D01*
X135186589Y-88310990D01*
X135456842Y-88422932D01*
X135743740Y-88480000D01*
X136036260Y-88480000D01*
X136323158Y-88422932D01*
X136593411Y-88310990D01*
X136836632Y-88148475D01*
X136961710Y-88023397D01*
X137581208Y-88023397D01*
X137658843Y-88272472D01*
X137922883Y-88398371D01*
X138206411Y-88470339D01*
X138498531Y-88485611D01*
X138788019Y-88443599D01*
X139063747Y-88345919D01*
X139201157Y-88272472D01*
X139278792Y-88023397D01*
X138430000Y-87174605D01*
X137581208Y-88023397D01*
X136961710Y-88023397D01*
X137043475Y-87941632D01*
X137159311Y-87768271D01*
X137401603Y-87843792D01*
X138250395Y-86995000D01*
X138609605Y-86995000D01*
X139458397Y-87843792D01*
X139707472Y-87766157D01*
X139833371Y-87502117D01*
X139905339Y-87218589D01*
X139920611Y-86926469D01*
X139878599Y-86636981D01*
X139780919Y-86361253D01*
X139707472Y-86223843D01*
X139458397Y-86146208D01*
X138609605Y-86995000D01*
X138250395Y-86995000D01*
X137401603Y-86146208D01*
X137159311Y-86221729D01*
X137043475Y-86048368D01*
X136836632Y-85841525D01*
X136662240Y-85725000D01*
X136836632Y-85608475D01*
X136961710Y-85483397D01*
X137581208Y-85483397D01*
X137656514Y-85725000D01*
X137581208Y-85966603D01*
X138430000Y-86815395D01*
X139278792Y-85966603D01*
X139203486Y-85725000D01*
X139278792Y-85483397D01*
X138430000Y-84634605D01*
X137581208Y-85483397D01*
X136961710Y-85483397D01*
X137043475Y-85401632D01*
X137159311Y-85228271D01*
X137401603Y-85303792D01*
X138250395Y-84455000D01*
X137401603Y-83606208D01*
X137159311Y-83681729D01*
X137043475Y-83508368D01*
X136836632Y-83301525D01*
X136662240Y-83185000D01*
X136836632Y-83068475D01*
X137043475Y-82861632D01*
X137159311Y-82688271D01*
X137401603Y-82763792D01*
X138250395Y-81915000D01*
X137401603Y-81066208D01*
X137159311Y-81141729D01*
X137043475Y-80968368D01*
X136836632Y-80761525D01*
X136662240Y-80645000D01*
X136836632Y-80528475D01*
X137043475Y-80321632D01*
X137159311Y-80148271D01*
X137401603Y-80223792D01*
X138250395Y-79375000D01*
X137401603Y-78526208D01*
X137159311Y-78601729D01*
X137043475Y-78428368D01*
X136856392Y-78241285D01*
X136983386Y-78173405D01*
X137117962Y-78062962D01*
X137228405Y-77928386D01*
X137296285Y-77801392D01*
X137483368Y-77988475D01*
X137656729Y-78104311D01*
X137581208Y-78346603D01*
X138430000Y-79195395D01*
X138444143Y-79181253D01*
X138623748Y-79360858D01*
X138609605Y-79375000D01*
X138623748Y-79389143D01*
X138444143Y-79568748D01*
X138430000Y-79554605D01*
X137581208Y-80403397D01*
X137656514Y-80645000D01*
X137581208Y-80886603D01*
X138430000Y-81735395D01*
X138444143Y-81721253D01*
X138623748Y-81900858D01*
X138609605Y-81915000D01*
X138623748Y-81929143D01*
X138444143Y-82108748D01*
X138430000Y-82094605D01*
X137581208Y-82943397D01*
X137656514Y-83185000D01*
X137581208Y-83426603D01*
X138430000Y-84275395D01*
X138444143Y-84261253D01*
X138623748Y-84440858D01*
X138609605Y-84455000D01*
X139458397Y-85303792D01*
X139707472Y-85226157D01*
X139833371Y-84962117D01*
X139905339Y-84678589D01*
X139919093Y-84415515D01*
X140002783Y-84331825D01*
X140100478Y-84597860D01*
X140392821Y-84740348D01*
X140707344Y-84823064D01*
X141031962Y-84842831D01*
X141354198Y-84798888D01*
X141661670Y-84692924D01*
X141839522Y-84597860D01*
X141937218Y-84331823D01*
X140970000Y-83364605D01*
X140955858Y-83378748D01*
X140776253Y-83199143D01*
X140790395Y-83185000D01*
X141149605Y-83185000D01*
X142116823Y-84152218D01*
X142382860Y-84054522D01*
X142525348Y-83762179D01*
X142608064Y-83447656D01*
X142627831Y-83123038D01*
X142583888Y-82800802D01*
X142477924Y-82493330D01*
X142382860Y-82315478D01*
X142116823Y-82217782D01*
X141149605Y-83185000D01*
X140790395Y-83185000D01*
X140776253Y-83170858D01*
X140955858Y-82991253D01*
X140970000Y-83005395D01*
X141937218Y-82038177D01*
X141921351Y-81994968D01*
X142022451Y-81927415D01*
X142252415Y-81697451D01*
X142433097Y-81427042D01*
X142557553Y-81126579D01*
X142621000Y-80807609D01*
X142621000Y-80482391D01*
X142557553Y-80163421D01*
X142548423Y-80141379D01*
X143005008Y-79684795D01*
X143034001Y-79661001D01*
X143057795Y-79632008D01*
X143057799Y-79632004D01*
X143128973Y-79545277D01*
X143128974Y-79545276D01*
X143199546Y-79413247D01*
X143243003Y-79269986D01*
X143254000Y-79158333D01*
X143254000Y-79158324D01*
X143257676Y-79121001D01*
X143254000Y-79083678D01*
X143254000Y-77253323D01*
X143257676Y-77216000D01*
X143254000Y-77178677D01*
X143254000Y-77178667D01*
X143243003Y-77067014D01*
X143199546Y-76923753D01*
X143128975Y-76791725D01*
X143128974Y-76791723D01*
X143057799Y-76704997D01*
X143034001Y-76675999D01*
X143005004Y-76652202D01*
X141025804Y-74673003D01*
X141002001Y-74643999D01*
X140886276Y-74549026D01*
X140754247Y-74478454D01*
X140610986Y-74434997D01*
X140499333Y-74424000D01*
X140499322Y-74424000D01*
X140462000Y-74420324D01*
X140424678Y-74424000D01*
X137578333Y-74424000D01*
X137541000Y-74420323D01*
X137503667Y-74424000D01*
X137392014Y-74434997D01*
X137248753Y-74478454D01*
X137116724Y-74549026D01*
X137000999Y-74643999D01*
X136977201Y-74672997D01*
X136303270Y-75346928D01*
X135290000Y-75346928D01*
X135116746Y-75363992D01*
X134950150Y-75414528D01*
X134796614Y-75496595D01*
X134662038Y-75607038D01*
X134551595Y-75741614D01*
X134469528Y-75895150D01*
X134418992Y-76061746D01*
X134401928Y-76235000D01*
X134401928Y-76822236D01*
X134132042Y-76641903D01*
X133831579Y-76517447D01*
X133512609Y-76454000D01*
X133187391Y-76454000D01*
X132868421Y-76517447D01*
X132567958Y-76641903D01*
X132297549Y-76822585D01*
X132067585Y-77052549D01*
X131886903Y-77322958D01*
X131762447Y-77623421D01*
X131699000Y-77942391D01*
X131699000Y-78267609D01*
X131762447Y-78586579D01*
X131771577Y-78608621D01*
X130807003Y-79573196D01*
X130777999Y-79596999D01*
X130725474Y-79661001D01*
X130683026Y-79712724D01*
X130612455Y-79844753D01*
X130612454Y-79844754D01*
X130568997Y-79988015D01*
X130558000Y-80099668D01*
X130558000Y-80099678D01*
X130554324Y-80137000D01*
X128295000Y-80137000D01*
X128295000Y-71155907D01*
X134636698Y-71155907D01*
X134932916Y-71590982D01*
X135506248Y-71898160D01*
X136128491Y-72087585D01*
X136775734Y-72151976D01*
X137423101Y-72088860D01*
X138045717Y-71900661D01*
X138619654Y-71594611D01*
X138625084Y-71590982D01*
X138921302Y-71155907D01*
X136779000Y-69013605D01*
X134636698Y-71155907D01*
X128295000Y-71155907D01*
X128295000Y-69659211D01*
X129330596Y-68830734D01*
X133461024Y-68830734D01*
X133524140Y-69478101D01*
X133712339Y-70100717D01*
X134018389Y-70674654D01*
X134022018Y-70680084D01*
X134457093Y-70976302D01*
X136599395Y-68834000D01*
X136958605Y-68834000D01*
X139100907Y-70976302D01*
X139535982Y-70680084D01*
X139843160Y-70106752D01*
X140032585Y-69484509D01*
X140096976Y-68837266D01*
X140033860Y-68189899D01*
X139845661Y-67567283D01*
X139539611Y-66993346D01*
X139535982Y-66987916D01*
X139100907Y-66691698D01*
X136958605Y-68834000D01*
X136599395Y-68834000D01*
X134457093Y-66691698D01*
X134022018Y-66987916D01*
X133714840Y-67561248D01*
X133525415Y-68183491D01*
X133461024Y-68830734D01*
X129330596Y-68830734D01*
X132946515Y-65938000D01*
X135192242Y-65938000D01*
X134938346Y-66073389D01*
%TA.AperFunction,Conductor*%
D15*
G36*
X134938346Y-66073389D02*
G01*
X134932916Y-66077018D01*
X134636698Y-66512093D01*
X136779000Y-68654395D01*
X138921302Y-66512093D01*
X138625084Y-66077018D01*
X138365614Y-65938000D01*
X145263000Y-65938000D01*
X145263001Y-97892000D01*
X138365758Y-97892000D01*
X138619654Y-97756611D01*
X138625084Y-97752982D01*
X138921302Y-97317907D01*
X136779000Y-95175605D01*
X134636698Y-97317907D01*
X134932916Y-97752982D01*
X135192386Y-97892000D01*
X128295000Y-97892000D01*
X128295000Y-94992734D01*
X133461024Y-94992734D01*
X133524140Y-95640101D01*
X133712339Y-96262717D01*
X134018389Y-96836654D01*
X134022018Y-96842084D01*
X134457093Y-97138302D01*
X136599395Y-94996000D01*
X136958605Y-94996000D01*
X139100907Y-97138302D01*
X139535982Y-96842084D01*
X139843160Y-96268752D01*
X140032585Y-95646509D01*
X140096976Y-94999266D01*
X140033860Y-94351899D01*
X139845661Y-93729283D01*
X139539611Y-93155346D01*
X139535982Y-93149916D01*
X139100907Y-92853698D01*
X136958605Y-94996000D01*
X136599395Y-94996000D01*
X134457093Y-92853698D01*
X134022018Y-93149916D01*
X133714840Y-93723248D01*
X133525415Y-94345491D01*
X133461024Y-94992734D01*
X128295000Y-94992734D01*
X128295000Y-92674093D01*
X134636698Y-92674093D01*
X136779000Y-94816395D01*
X138921302Y-92674093D01*
X138625084Y-92239018D01*
X138051752Y-91931840D01*
X137429509Y-91742415D01*
X136782266Y-91678024D01*
X136134899Y-91741140D01*
X135512283Y-91929339D01*
X134938346Y-92235389D01*
X134932916Y-92239018D01*
X134636698Y-92674093D01*
X128295000Y-92674093D01*
X128295000Y-80137000D01*
X130554324Y-80137000D01*
X130558000Y-80174323D01*
X130558001Y-84798668D01*
X130554324Y-84836000D01*
X130568998Y-84984985D01*
X130612454Y-85128246D01*
X130683026Y-85260276D01*
X130751737Y-85344000D01*
X130778000Y-85376001D01*
X130806998Y-85399799D01*
X132913201Y-87506003D01*
X132936999Y-87535001D01*
X132965997Y-87558799D01*
X133052723Y-87629974D01*
X133180759Y-87698411D01*
X133184753Y-87700546D01*
X133328014Y-87744003D01*
X133439667Y-87755000D01*
X133439676Y-87755000D01*
X133476999Y-87758676D01*
X133514322Y-87755000D01*
X134611822Y-87755000D01*
X134736525Y-87941632D01*
X134943368Y-88148475D01*
X135186589Y-88310990D01*
X135456842Y-88422932D01*
X135743740Y-88480000D01*
X136036260Y-88480000D01*
X136323158Y-88422932D01*
X136593411Y-88310990D01*
X136836632Y-88148475D01*
X136961710Y-88023397D01*
X137581208Y-88023397D01*
X137658843Y-88272472D01*
X137922883Y-88398371D01*
X138206411Y-88470339D01*
X138498531Y-88485611D01*
X138788019Y-88443599D01*
X139063747Y-88345919D01*
X139201157Y-88272472D01*
X139278792Y-88023397D01*
X138430000Y-87174605D01*
X137581208Y-88023397D01*
X136961710Y-88023397D01*
X137043475Y-87941632D01*
X137159311Y-87768271D01*
X137401603Y-87843792D01*
X138250395Y-86995000D01*
X138609605Y-86995000D01*
X139458397Y-87843792D01*
X139707472Y-87766157D01*
X139833371Y-87502117D01*
X139905339Y-87218589D01*
X139920611Y-86926469D01*
X139878599Y-86636981D01*
X139780919Y-86361253D01*
X139707472Y-86223843D01*
X139458397Y-86146208D01*
X138609605Y-86995000D01*
X138250395Y-86995000D01*
X137401603Y-86146208D01*
X137159311Y-86221729D01*
X137043475Y-86048368D01*
X136836632Y-85841525D01*
X136662240Y-85725000D01*
X136836632Y-85608475D01*
X136961710Y-85483397D01*
X137581208Y-85483397D01*
X137656514Y-85725000D01*
X137581208Y-85966603D01*
X138430000Y-86815395D01*
X139278792Y-85966603D01*
X139203486Y-85725000D01*
X139278792Y-85483397D01*
X138430000Y-84634605D01*
X137581208Y-85483397D01*
X136961710Y-85483397D01*
X137043475Y-85401632D01*
X137159311Y-85228271D01*
X137401603Y-85303792D01*
X138250395Y-84455000D01*
X137401603Y-83606208D01*
X137159311Y-83681729D01*
X137043475Y-83508368D01*
X136836632Y-83301525D01*
X136662240Y-83185000D01*
X136836632Y-83068475D01*
X137043475Y-82861632D01*
X137159311Y-82688271D01*
X137401603Y-82763792D01*
X138250395Y-81915000D01*
X137401603Y-81066208D01*
X137159311Y-81141729D01*
X137043475Y-80968368D01*
X136836632Y-80761525D01*
X136662240Y-80645000D01*
X136836632Y-80528475D01*
X137043475Y-80321632D01*
X137159311Y-80148271D01*
X137401603Y-80223792D01*
X138250395Y-79375000D01*
X137401603Y-78526208D01*
X137159311Y-78601729D01*
X137043475Y-78428368D01*
X136856392Y-78241285D01*
X136983386Y-78173405D01*
X137117962Y-78062962D01*
X137228405Y-77928386D01*
X137296285Y-77801392D01*
X137483368Y-77988475D01*
X137656729Y-78104311D01*
X137581208Y-78346603D01*
X138430000Y-79195395D01*
X138444143Y-79181253D01*
X138623748Y-79360858D01*
X138609605Y-79375000D01*
X138623748Y-79389143D01*
X138444143Y-79568748D01*
X138430000Y-79554605D01*
X137581208Y-80403397D01*
X137656514Y-80645000D01*
X137581208Y-80886603D01*
X138430000Y-81735395D01*
X138444143Y-81721253D01*
X138623748Y-81900858D01*
X138609605Y-81915000D01*
X138623748Y-81929143D01*
X138444143Y-82108748D01*
X138430000Y-82094605D01*
X137581208Y-82943397D01*
X137656514Y-83185000D01*
X137581208Y-83426603D01*
X138430000Y-84275395D01*
X138444143Y-84261253D01*
X138623748Y-84440858D01*
X138609605Y-84455000D01*
X139458397Y-85303792D01*
X139707472Y-85226157D01*
X139833371Y-84962117D01*
X139905339Y-84678589D01*
X139919093Y-84415515D01*
X140002783Y-84331825D01*
X140100478Y-84597860D01*
X140392821Y-84740348D01*
X140707344Y-84823064D01*
X141031962Y-84842831D01*
X141354198Y-84798888D01*
X141661670Y-84692924D01*
X141839522Y-84597860D01*
X141937218Y-84331823D01*
X140970000Y-83364605D01*
X140955858Y-83378748D01*
X140776253Y-83199143D01*
X140790395Y-83185000D01*
X141149605Y-83185000D01*
X142116823Y-84152218D01*
X142382860Y-84054522D01*
X142525348Y-83762179D01*
X142608064Y-83447656D01*
X142627831Y-83123038D01*
X142583888Y-82800802D01*
X142477924Y-82493330D01*
X142382860Y-82315478D01*
X142116823Y-82217782D01*
X141149605Y-83185000D01*
X140790395Y-83185000D01*
X140776253Y-83170858D01*
X140955858Y-82991253D01*
X140970000Y-83005395D01*
X141937218Y-82038177D01*
X141921351Y-81994968D01*
X142022451Y-81927415D01*
X142252415Y-81697451D01*
X142433097Y-81427042D01*
X142557553Y-81126579D01*
X142621000Y-80807609D01*
X142621000Y-80482391D01*
X142557553Y-80163421D01*
X142548423Y-80141379D01*
X143005008Y-79684795D01*
X143034001Y-79661001D01*
X143057795Y-79632008D01*
X143057799Y-79632004D01*
X143128973Y-79545277D01*
X143128974Y-79545276D01*
X143199546Y-79413247D01*
X143243003Y-79269986D01*
X143254000Y-79158333D01*
X143254000Y-79158324D01*
X143257676Y-79121001D01*
X143254000Y-79083678D01*
X143254000Y-77253323D01*
X143257676Y-77216000D01*
X143254000Y-77178677D01*
X143254000Y-77178667D01*
X143243003Y-77067014D01*
X143199546Y-76923753D01*
X143128975Y-76791725D01*
X143128974Y-76791723D01*
X143057799Y-76704997D01*
X143034001Y-76675999D01*
X143005004Y-76652202D01*
X141025804Y-74673003D01*
X141002001Y-74643999D01*
X140886276Y-74549026D01*
X140754247Y-74478454D01*
X140610986Y-74434997D01*
X140499333Y-74424000D01*
X140499322Y-74424000D01*
X140462000Y-74420324D01*
X140424678Y-74424000D01*
X137578333Y-74424000D01*
X137541000Y-74420323D01*
X137503667Y-74424000D01*
X137392014Y-74434997D01*
X137248753Y-74478454D01*
X137116724Y-74549026D01*
X137000999Y-74643999D01*
X136977201Y-74672997D01*
X136303270Y-75346928D01*
X135290000Y-75346928D01*
X135116746Y-75363992D01*
X134950150Y-75414528D01*
X134796614Y-75496595D01*
X134662038Y-75607038D01*
X134551595Y-75741614D01*
X134469528Y-75895150D01*
X134418992Y-76061746D01*
X134401928Y-76235000D01*
X134401928Y-76822236D01*
X134132042Y-76641903D01*
X133831579Y-76517447D01*
X133512609Y-76454000D01*
X133187391Y-76454000D01*
X132868421Y-76517447D01*
X132567958Y-76641903D01*
X132297549Y-76822585D01*
X132067585Y-77052549D01*
X131886903Y-77322958D01*
X131762447Y-77623421D01*
X131699000Y-77942391D01*
X131699000Y-78267609D01*
X131762447Y-78586579D01*
X131771577Y-78608621D01*
X130807003Y-79573196D01*
X130777999Y-79596999D01*
X130725474Y-79661001D01*
X130683026Y-79712724D01*
X130612455Y-79844753D01*
X130612454Y-79844754D01*
X130568997Y-79988015D01*
X130558000Y-80099668D01*
X130558000Y-80099678D01*
X130554324Y-80137000D01*
X128295000Y-80137000D01*
X128295000Y-71155907D01*
X134636698Y-71155907D01*
X134932916Y-71590982D01*
X135506248Y-71898160D01*
X136128491Y-72087585D01*
X136775734Y-72151976D01*
X137423101Y-72088860D01*
X138045717Y-71900661D01*
X138619654Y-71594611D01*
X138625084Y-71590982D01*
X138921302Y-71155907D01*
X136779000Y-69013605D01*
X134636698Y-71155907D01*
X128295000Y-71155907D01*
X128295000Y-69659211D01*
X129330596Y-68830734D01*
X133461024Y-68830734D01*
X133524140Y-69478101D01*
X133712339Y-70100717D01*
X134018389Y-70674654D01*
X134022018Y-70680084D01*
X134457093Y-70976302D01*
X136599395Y-68834000D01*
X136958605Y-68834000D01*
X139100907Y-70976302D01*
X139535982Y-70680084D01*
X139843160Y-70106752D01*
X140032585Y-69484509D01*
X140096976Y-68837266D01*
X140033860Y-68189899D01*
X139845661Y-67567283D01*
X139539611Y-66993346D01*
X139535982Y-66987916D01*
X139100907Y-66691698D01*
X136958605Y-68834000D01*
X136599395Y-68834000D01*
X134457093Y-66691698D01*
X134022018Y-66987916D01*
X133714840Y-67561248D01*
X133525415Y-68183491D01*
X133461024Y-68830734D01*
X129330596Y-68830734D01*
X132946515Y-65938000D01*
X135192242Y-65938000D01*
X134938346Y-66073389D01*
G37*
%TD.AperFunction*%
%TD*%
M02*
