%TF.GenerationSoftware,KiCad,Pcbnew,(5.1.8)-1*%
%TF.CreationDate,2021-11-24T15:46:08-08:00*%
%TF.ProjectId,ISP_SMT_Pogo_10p,4953505f-534d-4545-9f50-6f676f5f3130,rev?*%
%TF.SameCoordinates,Original*%
%TF.FileFunction,Copper,L2,Bot*%
%TF.FilePolarity,Positive*%
%FSLAX46Y46*%
G04 Gerber Fmt 4.6, Leading zero omitted, Abs format (unit mm)*
G04 Created by KiCad (PCBNEW (5.1.8)-1) date 2021-11-24 15:46:08*
%MOMM*%
%LPD*%
G01*
G04 APERTURE LIST*
%TA.AperFunction,SMDPad,CuDef*%
%ADD10R,2.540000X1.270000*%
%TD*%
%TA.AperFunction,ComponentPad*%
%ADD11C,2.032000*%
%TD*%
%TA.AperFunction,ComponentPad*%
%ADD12C,1.700000*%
%TD*%
%TA.AperFunction,ComponentPad*%
%ADD13C,5.334000*%
%TD*%
%TA.AperFunction,Conductor*%
%ADD14C,0.508000*%
%TD*%
%TA.AperFunction,Conductor*%
%ADD15C,0.250000*%
%TD*%
%TA.AperFunction,Conductor*%
%ADD16C,0.228600*%
%TD*%
%TA.AperFunction,Conductor*%
%ADD17C,0.100000*%
%TD*%
G04 APERTURE END LIST*
D10*
%TO.P,J1,1*%
%TO.N,/MISO*%
X131360000Y-78115000D03*
%TO.P,J1,5*%
%TO.N,/RST*%
X131360000Y-83215000D03*
%TO.P,J1,3*%
%TO.N,/SCK*%
X131360000Y-80615000D03*
%TO.P,J1,4*%
%TO.N,/MOSI*%
X142960000Y-80615000D03*
%TO.P,J1,6*%
%TO.N,/GND*%
X142960000Y-83215000D03*
%TO.P,J1,2*%
%TO.N,/VCC*%
X142960000Y-78115000D03*
D11*
%TO.P,J1,6*%
%TO.N,/GND*%
X140970000Y-83185000D03*
%TO.P,J1,4*%
%TO.N,/MOSI*%
X140970000Y-80645000D03*
%TO.P,J1,5*%
%TO.N,/RST*%
X133350000Y-83185000D03*
%TO.P,J1,3*%
%TO.N,/SCK*%
X133350000Y-80645000D03*
%TO.P,J1,1*%
%TO.N,/MISO*%
X133350000Y-78105000D03*
%TO.P,J1,2*%
%TO.N,/VCC*%
X140970000Y-78105000D03*
%TD*%
D12*
%TO.P,J2,10*%
%TO.N,/GND*%
X138430000Y-86995000D03*
%TO.P,J2,8*%
X138430000Y-84455000D03*
%TO.P,J2,6*%
X138430000Y-81915000D03*
%TO.P,J2,4*%
X138430000Y-79375000D03*
%TO.P,J2,2*%
%TO.N,/VCC*%
X138430000Y-76835000D03*
%TO.P,J2,9*%
%TO.N,/MISO*%
X135890000Y-86995000D03*
%TO.P,J2,7*%
%TO.N,/SCK*%
X135890000Y-84455000D03*
%TO.P,J2,5*%
%TO.N,/RST*%
X135890000Y-81915000D03*
%TO.P,J2,3*%
%TO.N,Net-(J2-Pad3)*%
X135890000Y-79375000D03*
%TO.P,J2,1*%
%TO.N,/MOSI*%
%TA.AperFunction,ComponentPad*%
G36*
G01*
X135040000Y-77435000D02*
X135040000Y-76235000D01*
G75*
G02*
X135290000Y-75985000I250000J0D01*
G01*
X136490000Y-75985000D01*
G75*
G02*
X136740000Y-76235000I0J-250000D01*
G01*
X136740000Y-77435000D01*
G75*
G02*
X136490000Y-77685000I-250000J0D01*
G01*
X135290000Y-77685000D01*
G75*
G02*
X135040000Y-77435000I0J250000D01*
G01*
G37*
%TD.AperFunction*%
%TD*%
D13*
%TO.P,H2,1*%
%TO.N,/GND*%
X136779000Y-68834000D03*
%TD*%
%TO.P,H1,1*%
%TO.N,/GND*%
X136779000Y-94996000D03*
%TD*%
D14*
%TO.N,/GND*%
X140970000Y-83185000D02*
X140970000Y-85090000D01*
X142930000Y-83185000D02*
X142960000Y-83215000D01*
X140970000Y-83185000D02*
X142930000Y-83185000D01*
X142960000Y-83215000D02*
X142960000Y-84667000D01*
D15*
%TO.N,/MOSI*%
X141000000Y-80615000D02*
X140970000Y-80645000D01*
X142960000Y-80615000D02*
X141000000Y-80615000D01*
%TO.N,/RST*%
X133320000Y-83215000D02*
X133350000Y-83185000D01*
X131360000Y-83215000D02*
X133320000Y-83215000D01*
%TO.N,/SCK*%
X133320000Y-80615000D02*
X133350000Y-80645000D01*
X131360000Y-80615000D02*
X133320000Y-80615000D01*
%TO.N,/MISO*%
X133340000Y-78115000D02*
X133350000Y-78105000D01*
X131360000Y-78115000D02*
X133340000Y-78115000D01*
%TO.N,/VCC*%
X140980000Y-78115000D02*
X140970000Y-78105000D01*
X142960000Y-78115000D02*
X140980000Y-78115000D01*
%TD*%
D16*
%TO.N,/GND*%
X134950999Y-66080300D02*
X134652842Y-66510277D01*
X136779000Y-68636434D01*
X138905158Y-66510277D01*
X138607001Y-66080300D01*
X138314906Y-65925300D01*
X145275700Y-65925300D01*
X145275701Y-97904700D01*
X138317016Y-97904700D01*
X138607001Y-97749700D01*
X138905158Y-97319723D01*
X136779000Y-95193566D01*
X134652842Y-97319723D01*
X134950999Y-97749700D01*
X135243094Y-97904700D01*
X128282300Y-97904700D01*
X128282300Y-95005946D01*
X133473799Y-95005946D01*
X133539248Y-95650568D01*
X133729199Y-96270035D01*
X134025300Y-96824001D01*
X134455277Y-97122158D01*
X136581434Y-94996000D01*
X136976566Y-94996000D01*
X139102723Y-97122158D01*
X139532700Y-96824001D01*
X139836414Y-96251656D01*
X140022632Y-95631058D01*
X140084201Y-94986054D01*
X140018752Y-94341432D01*
X139828801Y-93721965D01*
X139532700Y-93167999D01*
X139102723Y-92869842D01*
X136976566Y-94996000D01*
X136581434Y-94996000D01*
X134455277Y-92869842D01*
X134025300Y-93167999D01*
X133721586Y-93740344D01*
X133535368Y-94360942D01*
X133473799Y-95005946D01*
X128282300Y-95005946D01*
X128282300Y-92672277D01*
X134652842Y-92672277D01*
X136779000Y-94798434D01*
X138905158Y-92672277D01*
X138607001Y-92242300D01*
X138034656Y-91938586D01*
X137414058Y-91752368D01*
X136769054Y-91690799D01*
X136124432Y-91756248D01*
X135504965Y-91946199D01*
X134950999Y-92242300D01*
X134652842Y-92672277D01*
X128282300Y-92672277D01*
X128282300Y-77480000D01*
X129464689Y-77480000D01*
X129464689Y-78750000D01*
X129476704Y-78871992D01*
X129512288Y-78989296D01*
X129570073Y-79097404D01*
X129647838Y-79192162D01*
X129742596Y-79269927D01*
X129850704Y-79327712D01*
X129968008Y-79363296D01*
X129985309Y-79365000D01*
X129968008Y-79366704D01*
X129850704Y-79402288D01*
X129742596Y-79460073D01*
X129647838Y-79537838D01*
X129570073Y-79632596D01*
X129512288Y-79740704D01*
X129476704Y-79858008D01*
X129464689Y-79980000D01*
X129464689Y-81250000D01*
X129476704Y-81371992D01*
X129512288Y-81489296D01*
X129570073Y-81597404D01*
X129647838Y-81692162D01*
X129742596Y-81769927D01*
X129850704Y-81827712D01*
X129968008Y-81863296D01*
X130090000Y-81875311D01*
X132263405Y-81875311D01*
X132303094Y-81915000D01*
X132263405Y-81954689D01*
X130090000Y-81954689D01*
X129968008Y-81966704D01*
X129850704Y-82002288D01*
X129742596Y-82060073D01*
X129647838Y-82137838D01*
X129570073Y-82232596D01*
X129512288Y-82340704D01*
X129476704Y-82458008D01*
X129464689Y-82580000D01*
X129464689Y-83850000D01*
X129476704Y-83971992D01*
X129512288Y-84089296D01*
X129570073Y-84197404D01*
X129647838Y-84292162D01*
X129742596Y-84369927D01*
X129850704Y-84427712D01*
X129968008Y-84463296D01*
X130090000Y-84475311D01*
X132332225Y-84475311D01*
X132573974Y-84636843D01*
X132872126Y-84760341D01*
X133188642Y-84823300D01*
X133511358Y-84823300D01*
X133827874Y-84760341D01*
X134126026Y-84636843D01*
X134394355Y-84457551D01*
X134417700Y-84434206D01*
X134417700Y-84600009D01*
X134474280Y-84884454D01*
X134585265Y-85152396D01*
X134746390Y-85393537D01*
X134951463Y-85598610D01*
X135140619Y-85725000D01*
X134951463Y-85851390D01*
X134746390Y-86056463D01*
X134585265Y-86297604D01*
X134474280Y-86565546D01*
X134417700Y-86849991D01*
X134417700Y-87140009D01*
X134474280Y-87424454D01*
X134585265Y-87692396D01*
X134746390Y-87933537D01*
X134951463Y-88138610D01*
X135192604Y-88299735D01*
X135460546Y-88410720D01*
X135744991Y-88467300D01*
X136035009Y-88467300D01*
X136319454Y-88410720D01*
X136587396Y-88299735D01*
X136828537Y-88138610D01*
X136942489Y-88024658D01*
X137597907Y-88024658D01*
X137677322Y-88268644D01*
X137940261Y-88391011D01*
X138222019Y-88459731D01*
X138511770Y-88472162D01*
X138798379Y-88427826D01*
X139070830Y-88328427D01*
X139182678Y-88268644D01*
X139262093Y-88024658D01*
X138430000Y-87192566D01*
X137597907Y-88024658D01*
X136942489Y-88024658D01*
X137033610Y-87933537D01*
X137157539Y-87748063D01*
X137400342Y-87827093D01*
X138232434Y-86995000D01*
X138627566Y-86995000D01*
X139459658Y-87827093D01*
X139703644Y-87747678D01*
X139826011Y-87484739D01*
X139894731Y-87202981D01*
X139907162Y-86913230D01*
X139862826Y-86626621D01*
X139763427Y-86354170D01*
X139703644Y-86242322D01*
X139459658Y-86162907D01*
X138627566Y-86995000D01*
X138232434Y-86995000D01*
X137400342Y-86162907D01*
X137157539Y-86241937D01*
X137033610Y-86056463D01*
X136828537Y-85851390D01*
X136639381Y-85725000D01*
X136828537Y-85598610D01*
X136942489Y-85484658D01*
X137597907Y-85484658D01*
X137676136Y-85725000D01*
X137597907Y-85965342D01*
X138430000Y-86797434D01*
X139262093Y-85965342D01*
X139183864Y-85725000D01*
X139262093Y-85484658D01*
X138430000Y-84652566D01*
X137597907Y-85484658D01*
X136942489Y-85484658D01*
X137033610Y-85393537D01*
X137157539Y-85208063D01*
X137400342Y-85287093D01*
X138232434Y-84455000D01*
X137400342Y-83622907D01*
X137157539Y-83701937D01*
X137033610Y-83516463D01*
X136828537Y-83311390D01*
X136639381Y-83185000D01*
X136828537Y-83058610D01*
X137033610Y-82853537D01*
X137157539Y-82668063D01*
X137400342Y-82747093D01*
X138232434Y-81915000D01*
X137400342Y-81082907D01*
X137157539Y-81161937D01*
X137033610Y-80976463D01*
X136828537Y-80771390D01*
X136639381Y-80645000D01*
X136828537Y-80518610D01*
X137033610Y-80313537D01*
X137157539Y-80128063D01*
X137400342Y-80207093D01*
X138232434Y-79375000D01*
X137400342Y-78542907D01*
X137157539Y-78621937D01*
X137033610Y-78436463D01*
X136835304Y-78238157D01*
X136976297Y-78162794D01*
X137108938Y-78053938D01*
X137217794Y-77921297D01*
X137293157Y-77780304D01*
X137491463Y-77978610D01*
X137676937Y-78102539D01*
X137597907Y-78345342D01*
X138430000Y-79177434D01*
X138444142Y-79163292D01*
X138641708Y-79360858D01*
X138627566Y-79375000D01*
X138641708Y-79389142D01*
X138444142Y-79586708D01*
X138430000Y-79572566D01*
X137597907Y-80404658D01*
X137676136Y-80644999D01*
X137597907Y-80885342D01*
X138430000Y-81717434D01*
X138444142Y-81703292D01*
X138641708Y-81900858D01*
X138627566Y-81915000D01*
X138641708Y-81929142D01*
X138444142Y-82126708D01*
X138430000Y-82112566D01*
X137597907Y-82944658D01*
X137676136Y-83185000D01*
X137597907Y-83425342D01*
X138430000Y-84257434D01*
X138444142Y-84243292D01*
X138641708Y-84440858D01*
X138627566Y-84455000D01*
X139459658Y-85287093D01*
X139703644Y-85207678D01*
X139826011Y-84944739D01*
X139894731Y-84662981D01*
X139904025Y-84446359D01*
X139905117Y-84447451D01*
X140019373Y-84333195D01*
X140118882Y-84594135D01*
X140410145Y-84733104D01*
X140722922Y-84812579D01*
X141045194Y-84829509D01*
X141364578Y-84783240D01*
X141668798Y-84675552D01*
X141821118Y-84594135D01*
X141866432Y-84475311D01*
X144230000Y-84475311D01*
X144351992Y-84463296D01*
X144469296Y-84427712D01*
X144577404Y-84369927D01*
X144672162Y-84292162D01*
X144749927Y-84197404D01*
X144807712Y-84089296D01*
X144843296Y-83971992D01*
X144855311Y-83850000D01*
X144855311Y-82580000D01*
X144843296Y-82458008D01*
X144807712Y-82340704D01*
X144749927Y-82232596D01*
X144672162Y-82137838D01*
X144577404Y-82060073D01*
X144469296Y-82002288D01*
X144351992Y-81966704D01*
X144230000Y-81954689D01*
X142067023Y-81954689D01*
X142034883Y-81922549D01*
X142002743Y-81954689D01*
X141958774Y-81954689D01*
X142014355Y-81917551D01*
X142056595Y-81875311D01*
X144230000Y-81875311D01*
X144351992Y-81863296D01*
X144469296Y-81827712D01*
X144577404Y-81769927D01*
X144672162Y-81692162D01*
X144749927Y-81597404D01*
X144807712Y-81489296D01*
X144843296Y-81371992D01*
X144855311Y-81250000D01*
X144855311Y-79980000D01*
X144843296Y-79858008D01*
X144807712Y-79740704D01*
X144749927Y-79632596D01*
X144672162Y-79537838D01*
X144577404Y-79460073D01*
X144469296Y-79402288D01*
X144351992Y-79366704D01*
X144334691Y-79365000D01*
X144351992Y-79363296D01*
X144469296Y-79327712D01*
X144577404Y-79269927D01*
X144672162Y-79192162D01*
X144749927Y-79097404D01*
X144807712Y-78989296D01*
X144843296Y-78871992D01*
X144855311Y-78750000D01*
X144855311Y-77480000D01*
X144843296Y-77358008D01*
X144807712Y-77240704D01*
X144749927Y-77132596D01*
X144672162Y-77037838D01*
X144577404Y-76960073D01*
X144469296Y-76902288D01*
X144351992Y-76866704D01*
X144230000Y-76854689D01*
X142036595Y-76854689D01*
X142014355Y-76832449D01*
X141746026Y-76653157D01*
X141447874Y-76529659D01*
X141131358Y-76466700D01*
X140808642Y-76466700D01*
X140492126Y-76529659D01*
X140193974Y-76653157D01*
X139925645Y-76832449D01*
X139902300Y-76855794D01*
X139902300Y-76689991D01*
X139845720Y-76405546D01*
X139734735Y-76137604D01*
X139573610Y-75896463D01*
X139368537Y-75691390D01*
X139127396Y-75530265D01*
X138859454Y-75419280D01*
X138575009Y-75362700D01*
X138284991Y-75362700D01*
X138000546Y-75419280D01*
X137732604Y-75530265D01*
X137491463Y-75691390D01*
X137293157Y-75889696D01*
X137217794Y-75748703D01*
X137108938Y-75616062D01*
X136976297Y-75507206D01*
X136824967Y-75426318D01*
X136660765Y-75376508D01*
X136490000Y-75359689D01*
X135290000Y-75359689D01*
X135119235Y-75376508D01*
X134955033Y-75426318D01*
X134803703Y-75507206D01*
X134671062Y-75616062D01*
X134562206Y-75748703D01*
X134481318Y-75900033D01*
X134431508Y-76064235D01*
X134414689Y-76235000D01*
X134414689Y-76852783D01*
X134394355Y-76832449D01*
X134126026Y-76653157D01*
X133827874Y-76529659D01*
X133511358Y-76466700D01*
X133188642Y-76466700D01*
X132872126Y-76529659D01*
X132573974Y-76653157D01*
X132305645Y-76832449D01*
X132283405Y-76854689D01*
X130090000Y-76854689D01*
X129968008Y-76866704D01*
X129850704Y-76902288D01*
X129742596Y-76960073D01*
X129647838Y-77037838D01*
X129570073Y-77132596D01*
X129512288Y-77240704D01*
X129476704Y-77358008D01*
X129464689Y-77480000D01*
X128282300Y-77480000D01*
X128282300Y-71157723D01*
X134652842Y-71157723D01*
X134950999Y-71587700D01*
X135523344Y-71891414D01*
X136143942Y-72077632D01*
X136788946Y-72139201D01*
X137433568Y-72073752D01*
X138053035Y-71883801D01*
X138607001Y-71587700D01*
X138905158Y-71157723D01*
X136779000Y-69031566D01*
X134652842Y-71157723D01*
X128282300Y-71157723D01*
X128282300Y-69653108D01*
X129293752Y-68843946D01*
X133473799Y-68843946D01*
X133539248Y-69488568D01*
X133729199Y-70108035D01*
X134025300Y-70662001D01*
X134455277Y-70960158D01*
X136581434Y-68834000D01*
X136976566Y-68834000D01*
X139102723Y-70960158D01*
X139532700Y-70662001D01*
X139836414Y-70089656D01*
X140022632Y-69469058D01*
X140084201Y-68824054D01*
X140018752Y-68179432D01*
X139828801Y-67559965D01*
X139532700Y-67005999D01*
X139102723Y-66707842D01*
X136976566Y-68834000D01*
X136581434Y-68834000D01*
X134455277Y-66707842D01*
X134025300Y-67005999D01*
X133721586Y-67578344D01*
X133535368Y-68198942D01*
X133473799Y-68843946D01*
X129293752Y-68843946D01*
X132942060Y-65925300D01*
X135240984Y-65925300D01*
X134950999Y-66080300D01*
%TA.AperFunction,Conductor*%
D17*
G36*
X134950999Y-66080300D02*
G01*
X134652842Y-66510277D01*
X136779000Y-68636434D01*
X138905158Y-66510277D01*
X138607001Y-66080300D01*
X138314906Y-65925300D01*
X145275700Y-65925300D01*
X145275701Y-97904700D01*
X138317016Y-97904700D01*
X138607001Y-97749700D01*
X138905158Y-97319723D01*
X136779000Y-95193566D01*
X134652842Y-97319723D01*
X134950999Y-97749700D01*
X135243094Y-97904700D01*
X128282300Y-97904700D01*
X128282300Y-95005946D01*
X133473799Y-95005946D01*
X133539248Y-95650568D01*
X133729199Y-96270035D01*
X134025300Y-96824001D01*
X134455277Y-97122158D01*
X136581434Y-94996000D01*
X136976566Y-94996000D01*
X139102723Y-97122158D01*
X139532700Y-96824001D01*
X139836414Y-96251656D01*
X140022632Y-95631058D01*
X140084201Y-94986054D01*
X140018752Y-94341432D01*
X139828801Y-93721965D01*
X139532700Y-93167999D01*
X139102723Y-92869842D01*
X136976566Y-94996000D01*
X136581434Y-94996000D01*
X134455277Y-92869842D01*
X134025300Y-93167999D01*
X133721586Y-93740344D01*
X133535368Y-94360942D01*
X133473799Y-95005946D01*
X128282300Y-95005946D01*
X128282300Y-92672277D01*
X134652842Y-92672277D01*
X136779000Y-94798434D01*
X138905158Y-92672277D01*
X138607001Y-92242300D01*
X138034656Y-91938586D01*
X137414058Y-91752368D01*
X136769054Y-91690799D01*
X136124432Y-91756248D01*
X135504965Y-91946199D01*
X134950999Y-92242300D01*
X134652842Y-92672277D01*
X128282300Y-92672277D01*
X128282300Y-77480000D01*
X129464689Y-77480000D01*
X129464689Y-78750000D01*
X129476704Y-78871992D01*
X129512288Y-78989296D01*
X129570073Y-79097404D01*
X129647838Y-79192162D01*
X129742596Y-79269927D01*
X129850704Y-79327712D01*
X129968008Y-79363296D01*
X129985309Y-79365000D01*
X129968008Y-79366704D01*
X129850704Y-79402288D01*
X129742596Y-79460073D01*
X129647838Y-79537838D01*
X129570073Y-79632596D01*
X129512288Y-79740704D01*
X129476704Y-79858008D01*
X129464689Y-79980000D01*
X129464689Y-81250000D01*
X129476704Y-81371992D01*
X129512288Y-81489296D01*
X129570073Y-81597404D01*
X129647838Y-81692162D01*
X129742596Y-81769927D01*
X129850704Y-81827712D01*
X129968008Y-81863296D01*
X130090000Y-81875311D01*
X132263405Y-81875311D01*
X132303094Y-81915000D01*
X132263405Y-81954689D01*
X130090000Y-81954689D01*
X129968008Y-81966704D01*
X129850704Y-82002288D01*
X129742596Y-82060073D01*
X129647838Y-82137838D01*
X129570073Y-82232596D01*
X129512288Y-82340704D01*
X129476704Y-82458008D01*
X129464689Y-82580000D01*
X129464689Y-83850000D01*
X129476704Y-83971992D01*
X129512288Y-84089296D01*
X129570073Y-84197404D01*
X129647838Y-84292162D01*
X129742596Y-84369927D01*
X129850704Y-84427712D01*
X129968008Y-84463296D01*
X130090000Y-84475311D01*
X132332225Y-84475311D01*
X132573974Y-84636843D01*
X132872126Y-84760341D01*
X133188642Y-84823300D01*
X133511358Y-84823300D01*
X133827874Y-84760341D01*
X134126026Y-84636843D01*
X134394355Y-84457551D01*
X134417700Y-84434206D01*
X134417700Y-84600009D01*
X134474280Y-84884454D01*
X134585265Y-85152396D01*
X134746390Y-85393537D01*
X134951463Y-85598610D01*
X135140619Y-85725000D01*
X134951463Y-85851390D01*
X134746390Y-86056463D01*
X134585265Y-86297604D01*
X134474280Y-86565546D01*
X134417700Y-86849991D01*
X134417700Y-87140009D01*
X134474280Y-87424454D01*
X134585265Y-87692396D01*
X134746390Y-87933537D01*
X134951463Y-88138610D01*
X135192604Y-88299735D01*
X135460546Y-88410720D01*
X135744991Y-88467300D01*
X136035009Y-88467300D01*
X136319454Y-88410720D01*
X136587396Y-88299735D01*
X136828537Y-88138610D01*
X136942489Y-88024658D01*
X137597907Y-88024658D01*
X137677322Y-88268644D01*
X137940261Y-88391011D01*
X138222019Y-88459731D01*
X138511770Y-88472162D01*
X138798379Y-88427826D01*
X139070830Y-88328427D01*
X139182678Y-88268644D01*
X139262093Y-88024658D01*
X138430000Y-87192566D01*
X137597907Y-88024658D01*
X136942489Y-88024658D01*
X137033610Y-87933537D01*
X137157539Y-87748063D01*
X137400342Y-87827093D01*
X138232434Y-86995000D01*
X138627566Y-86995000D01*
X139459658Y-87827093D01*
X139703644Y-87747678D01*
X139826011Y-87484739D01*
X139894731Y-87202981D01*
X139907162Y-86913230D01*
X139862826Y-86626621D01*
X139763427Y-86354170D01*
X139703644Y-86242322D01*
X139459658Y-86162907D01*
X138627566Y-86995000D01*
X138232434Y-86995000D01*
X137400342Y-86162907D01*
X137157539Y-86241937D01*
X137033610Y-86056463D01*
X136828537Y-85851390D01*
X136639381Y-85725000D01*
X136828537Y-85598610D01*
X136942489Y-85484658D01*
X137597907Y-85484658D01*
X137676136Y-85725000D01*
X137597907Y-85965342D01*
X138430000Y-86797434D01*
X139262093Y-85965342D01*
X139183864Y-85725000D01*
X139262093Y-85484658D01*
X138430000Y-84652566D01*
X137597907Y-85484658D01*
X136942489Y-85484658D01*
X137033610Y-85393537D01*
X137157539Y-85208063D01*
X137400342Y-85287093D01*
X138232434Y-84455000D01*
X137400342Y-83622907D01*
X137157539Y-83701937D01*
X137033610Y-83516463D01*
X136828537Y-83311390D01*
X136639381Y-83185000D01*
X136828537Y-83058610D01*
X137033610Y-82853537D01*
X137157539Y-82668063D01*
X137400342Y-82747093D01*
X138232434Y-81915000D01*
X137400342Y-81082907D01*
X137157539Y-81161937D01*
X137033610Y-80976463D01*
X136828537Y-80771390D01*
X136639381Y-80645000D01*
X136828537Y-80518610D01*
X137033610Y-80313537D01*
X137157539Y-80128063D01*
X137400342Y-80207093D01*
X138232434Y-79375000D01*
X137400342Y-78542907D01*
X137157539Y-78621937D01*
X137033610Y-78436463D01*
X136835304Y-78238157D01*
X136976297Y-78162794D01*
X137108938Y-78053938D01*
X137217794Y-77921297D01*
X137293157Y-77780304D01*
X137491463Y-77978610D01*
X137676937Y-78102539D01*
X137597907Y-78345342D01*
X138430000Y-79177434D01*
X138444142Y-79163292D01*
X138641708Y-79360858D01*
X138627566Y-79375000D01*
X138641708Y-79389142D01*
X138444142Y-79586708D01*
X138430000Y-79572566D01*
X137597907Y-80404658D01*
X137676136Y-80644999D01*
X137597907Y-80885342D01*
X138430000Y-81717434D01*
X138444142Y-81703292D01*
X138641708Y-81900858D01*
X138627566Y-81915000D01*
X138641708Y-81929142D01*
X138444142Y-82126708D01*
X138430000Y-82112566D01*
X137597907Y-82944658D01*
X137676136Y-83185000D01*
X137597907Y-83425342D01*
X138430000Y-84257434D01*
X138444142Y-84243292D01*
X138641708Y-84440858D01*
X138627566Y-84455000D01*
X139459658Y-85287093D01*
X139703644Y-85207678D01*
X139826011Y-84944739D01*
X139894731Y-84662981D01*
X139904025Y-84446359D01*
X139905117Y-84447451D01*
X140019373Y-84333195D01*
X140118882Y-84594135D01*
X140410145Y-84733104D01*
X140722922Y-84812579D01*
X141045194Y-84829509D01*
X141364578Y-84783240D01*
X141668798Y-84675552D01*
X141821118Y-84594135D01*
X141866432Y-84475311D01*
X144230000Y-84475311D01*
X144351992Y-84463296D01*
X144469296Y-84427712D01*
X144577404Y-84369927D01*
X144672162Y-84292162D01*
X144749927Y-84197404D01*
X144807712Y-84089296D01*
X144843296Y-83971992D01*
X144855311Y-83850000D01*
X144855311Y-82580000D01*
X144843296Y-82458008D01*
X144807712Y-82340704D01*
X144749927Y-82232596D01*
X144672162Y-82137838D01*
X144577404Y-82060073D01*
X144469296Y-82002288D01*
X144351992Y-81966704D01*
X144230000Y-81954689D01*
X142067023Y-81954689D01*
X142034883Y-81922549D01*
X142002743Y-81954689D01*
X141958774Y-81954689D01*
X142014355Y-81917551D01*
X142056595Y-81875311D01*
X144230000Y-81875311D01*
X144351992Y-81863296D01*
X144469296Y-81827712D01*
X144577404Y-81769927D01*
X144672162Y-81692162D01*
X144749927Y-81597404D01*
X144807712Y-81489296D01*
X144843296Y-81371992D01*
X144855311Y-81250000D01*
X144855311Y-79980000D01*
X144843296Y-79858008D01*
X144807712Y-79740704D01*
X144749927Y-79632596D01*
X144672162Y-79537838D01*
X144577404Y-79460073D01*
X144469296Y-79402288D01*
X144351992Y-79366704D01*
X144334691Y-79365000D01*
X144351992Y-79363296D01*
X144469296Y-79327712D01*
X144577404Y-79269927D01*
X144672162Y-79192162D01*
X144749927Y-79097404D01*
X144807712Y-78989296D01*
X144843296Y-78871992D01*
X144855311Y-78750000D01*
X144855311Y-77480000D01*
X144843296Y-77358008D01*
X144807712Y-77240704D01*
X144749927Y-77132596D01*
X144672162Y-77037838D01*
X144577404Y-76960073D01*
X144469296Y-76902288D01*
X144351992Y-76866704D01*
X144230000Y-76854689D01*
X142036595Y-76854689D01*
X142014355Y-76832449D01*
X141746026Y-76653157D01*
X141447874Y-76529659D01*
X141131358Y-76466700D01*
X140808642Y-76466700D01*
X140492126Y-76529659D01*
X140193974Y-76653157D01*
X139925645Y-76832449D01*
X139902300Y-76855794D01*
X139902300Y-76689991D01*
X139845720Y-76405546D01*
X139734735Y-76137604D01*
X139573610Y-75896463D01*
X139368537Y-75691390D01*
X139127396Y-75530265D01*
X138859454Y-75419280D01*
X138575009Y-75362700D01*
X138284991Y-75362700D01*
X138000546Y-75419280D01*
X137732604Y-75530265D01*
X137491463Y-75691390D01*
X137293157Y-75889696D01*
X137217794Y-75748703D01*
X137108938Y-75616062D01*
X136976297Y-75507206D01*
X136824967Y-75426318D01*
X136660765Y-75376508D01*
X136490000Y-75359689D01*
X135290000Y-75359689D01*
X135119235Y-75376508D01*
X134955033Y-75426318D01*
X134803703Y-75507206D01*
X134671062Y-75616062D01*
X134562206Y-75748703D01*
X134481318Y-75900033D01*
X134431508Y-76064235D01*
X134414689Y-76235000D01*
X134414689Y-76852783D01*
X134394355Y-76832449D01*
X134126026Y-76653157D01*
X133827874Y-76529659D01*
X133511358Y-76466700D01*
X133188642Y-76466700D01*
X132872126Y-76529659D01*
X132573974Y-76653157D01*
X132305645Y-76832449D01*
X132283405Y-76854689D01*
X130090000Y-76854689D01*
X129968008Y-76866704D01*
X129850704Y-76902288D01*
X129742596Y-76960073D01*
X129647838Y-77037838D01*
X129570073Y-77132596D01*
X129512288Y-77240704D01*
X129476704Y-77358008D01*
X129464689Y-77480000D01*
X128282300Y-77480000D01*
X128282300Y-71157723D01*
X134652842Y-71157723D01*
X134950999Y-71587700D01*
X135523344Y-71891414D01*
X136143942Y-72077632D01*
X136788946Y-72139201D01*
X137433568Y-72073752D01*
X138053035Y-71883801D01*
X138607001Y-71587700D01*
X138905158Y-71157723D01*
X136779000Y-69031566D01*
X134652842Y-71157723D01*
X128282300Y-71157723D01*
X128282300Y-69653108D01*
X129293752Y-68843946D01*
X133473799Y-68843946D01*
X133539248Y-69488568D01*
X133729199Y-70108035D01*
X134025300Y-70662001D01*
X134455277Y-70960158D01*
X136581434Y-68834000D01*
X136976566Y-68834000D01*
X139102723Y-70960158D01*
X139532700Y-70662001D01*
X139836414Y-70089656D01*
X140022632Y-69469058D01*
X140084201Y-68824054D01*
X140018752Y-68179432D01*
X139828801Y-67559965D01*
X139532700Y-67005999D01*
X139102723Y-66707842D01*
X136976566Y-68834000D01*
X136581434Y-68834000D01*
X134455277Y-66707842D01*
X134025300Y-67005999D01*
X133721586Y-67578344D01*
X133535368Y-68198942D01*
X133473799Y-68843946D01*
X129293752Y-68843946D01*
X132942060Y-65925300D01*
X135240984Y-65925300D01*
X134950999Y-66080300D01*
G37*
%TD.AperFunction*%
D16*
X141064689Y-83053839D02*
X141064689Y-83316161D01*
X140984142Y-83396708D01*
X140970000Y-83382566D01*
X140955858Y-83396708D01*
X140758292Y-83199142D01*
X140772434Y-83185000D01*
X140758292Y-83170858D01*
X140955858Y-82973292D01*
X140970000Y-82987434D01*
X140984142Y-82973292D01*
X141064689Y-83053839D01*
%TA.AperFunction,Conductor*%
D17*
G36*
X141064689Y-83053839D02*
G01*
X141064689Y-83316161D01*
X140984142Y-83396708D01*
X140970000Y-83382566D01*
X140955858Y-83396708D01*
X140758292Y-83199142D01*
X140772434Y-83185000D01*
X140758292Y-83170858D01*
X140955858Y-82973292D01*
X140970000Y-82987434D01*
X140984142Y-82973292D01*
X141064689Y-83053839D01*
G37*
%TD.AperFunction*%
%TD*%
M02*
